<!DOCTYPE svg PUBLIC "-//W3C//DTD SVG 1.1//EN" "http://www.w3.org/Graphics/SVG/1.1/DTD/svg11.dtd">
<!-- Uploaded to: SVG Repo, www.svgrepo.com, Transformed by: SVG Repo Mixer Tools -->
<svg height="800px" width="800px" version="1.1" id="Layer_1" xmlns="http://www.w3.org/2000/svg" xmlns:xlink="http://www.w3.org/1999/xlink" viewBox="0 0 512 512" xml:space="preserve" fill="#000000">
<g id="SVGRepo_bgCarrier" stroke-width="0"/>
<g id="SVGRepo_tracerCarrier" stroke-linecap="round" stroke-linejoin="round"/>
<g id="SVGRepo_iconCarrier"> <path style="fill:#127C8D;" d="M329.532,106.213v182.468c0,40.546-32.986,73.532-73.532,73.532s-73.532-32.986-73.532-73.532 V106.213L111.66,84.426l-70.809,21.787v182.468c0,118.823,96.326,215.149,215.149,215.149s215.149-96.326,215.149-215.149V106.213 L400.34,84.426L329.532,106.213z"/> <path style="fill:#F56E92;" d="M182.468,8.17H40.851c0,0,0,41.574,0,98.043h141.617V8.17z"/> <path style="fill:#F23E6D;" d="M471.149,8.17H329.532v98.043h141.617C471.149,49.745,471.149,8.17,471.149,8.17z"/> <g> <path style="fill:#3E0412;" d="M471.149,0H329.532c-4.512,0-8.17,3.657-8.17,8.17v280.511c0,36.04-29.321,65.362-65.362,65.362 s-65.362-29.321-65.362-65.362V8.17c0-4.513-3.658-8.17-8.17-8.17H40.851c-4.512,0-8.17,3.657-8.17,8.17v280.511 C32.681,411.819,132.861,512,256,512s223.319-100.181,223.319-223.319V8.17C479.319,3.657,475.661,0,471.149,0z M49.021,16.34 h125.277v81.702H49.021V16.34z M462.979,98.043h-24.511c-4.512,0-8.17,3.657-8.17,8.17s3.658,8.17,8.17,8.17h24.511v174.298 c0,114.129-92.85,206.979-206.979,206.979S49.021,402.81,49.021,288.681V114.383h125.277v174.298 c0,45.051,36.652,81.702,81.702,81.702s81.702-36.652,81.702-81.702V114.383h68.085c4.512,0,8.17-3.657,8.17-8.17 s-3.658-8.17-8.17-8.17h-68.085V16.34h125.277V98.043z"/> <circle style="fill:#3E0412;" cx="155.779" cy="420.494" r="8.17"/> <circle style="fill:#3E0412;" cx="123.098" cy="387.813" r="8.17"/> <circle style="fill:#3E0412;" cx="421.801" cy="185.932" r="8.17"/> </g> </g>
</svg>